<?xml version="1.0" encoding="UTF-8"?>
<svg data-bbox="39.308 116.202 311.072 159.492" viewBox="0 0 375 375" xmlns="http://www.w3.org/2000/svg" data-type="ugc">
    <g>
        <path stroke-width="11.012" stroke="#ffffff" d="m120.976 185.433-2.008 16.387H86.195l-3.031 24.582H99.55l.488-4.098h-12.29l2.052-16.386h28.675l-4.547 36.87H64.77l7.044-57.355Zm4.094 0h49.16l-7.047 57.355h-16.387l1.516-12.289h-16.387l-1.515 12.29h-16.387Zm14.379 16.387-1.516 12.289h16.386l1.516-12.289Zm97.377 40.968h-16.39l5.039-40.968h-8.191l-5.04 40.968h-16.386l5.04-40.968h-8.196l-5.04 40.968h-16.386l7.047-57.355h65.546Zm22.485-16.386h32.773l-2.004 16.386h-49.164l7.047-57.355h49.16l-2.004 16.387h-32.777l-.488 4.098h32.773l-2.051 16.386h-32.773Zm91.069-40.969-2.008 16.387H315.6l-.492 4.098h32.773l-4.547 36.87h-49.16l2.004-16.386h32.777l.493-4.098H296.67l4.546-36.87Zm0 0" fill="none"/>
        <path d="m120.971 185.43-2 16.39H86.19l-3.031 24.578h16.39l.5-4.093H87.752l2.047-16.391h28.688l-4.563 36.875H64.768l7.047-57.36Zm0 0" fill="#5d0286"/>
        <path d="M125.07 185.43h49.156l-7.047 57.359h-16.375l1.516-12.297h-16.39l-1.516 12.297h-16.391Zm14.375 16.39-1.516 12.297h16.39l1.517-12.297Zm0 0" fill="#5d0286"/>
        <path d="M236.825 242.789h-16.39l5.046-40.969h-8.187l-5.047 40.969h-16.39l5.046-40.969H192.7l-5.031 40.969h-16.391l7.047-57.36h65.547Zm0 0" fill="#5d0286"/>
        <path d="M259.31 226.398h32.78l-2.015 16.391H240.92l7.047-57.36h49.156l-2 16.391h-32.781l-.485 4.094h32.782l-2.063 16.39H259.81Zm0 0" fill="#5d0286"/>
        <path d="m350.377 185.43-2 16.39h-32.781l-.485 4.094h32.782l-4.563 36.875h-49.156l2-16.39h32.781l.5-4.094h-32.781l4.547-36.875Zm0 0" fill="#5d0286"/>
        <path stroke-width="11.382" stroke="#ffffff" d="M46.59 116.204h50.809l-7.282 59.28H73.18l1.566-12.702H57.813l-1.567 12.703H39.31Zm14.863 16.937-1.566 12.703h16.937l1.567-12.703Zm90.985-16.937-2.075 16.937h-33.87l-3.133 25.406h33.87l-2.074 16.938H94.348l7.281-59.281Zm36.027 16.937-5.207 42.344H166.32l5.211-42.344h-16.937l2.074-16.937h50.809l-2.075 16.937Zm32.895 42.344h-16.934l7.281-59.281h16.938Zm11.515-59.281h16.938l-4.914 40.097 16.558 2.797 5.293-42.894h16.934l-7.79 63.511-49.792-8.465Zm66.766 42.343h33.875l-2.074 16.938h-50.809l7.281-59.281h50.809l-2.074 16.937h-33.871l-.508 4.234h33.87l-2.116 16.938h-33.871Zm0 0" fill="none"/>
        <path d="M46.59 116.202h50.812l-7.282 59.281H73.183l1.562-12.703H57.808l-1.563 12.703H39.308Zm14.859 16.937-1.563 12.703h16.938l1.562-12.703Zm0 0" fill="#4da212"/>
        <path d="m152.44 116.202-2.077 16.937h-33.875l-3.125 25.406h33.875l-2.079 16.938H94.347l7.281-59.281Zm0 0" fill="#4da212"/>
        <path d="m188.463 133.14-5.203 42.343h-16.938l5.204-42.344h-16.938l2.078-16.937h50.813l-2.078 16.937Zm0 0" fill="#4da212"/>
        <path d="M221.362 175.483h-16.938l7.281-59.281h16.938Zm0 0" fill="#4da212"/>
        <path d="M232.874 116.202h16.938l-4.907 40.094 16.547 2.796 5.297-42.89h16.938l-7.797 63.515-49.781-8.468Zm0 0" fill="#4da212"/>
        <path d="M299.647 158.546h33.875l-2.079 16.937h-50.812l7.281-59.281h50.813l-2.078 16.937h-33.875l-.5 4.235h33.875l-2.125 16.937h-33.875Zm0 0" fill="#4da212"/>
        <path stroke-width="4.224" stroke="#ffffff" d="m56.024 261.223-1.781 14.469h-5.79l1.782-14.47h-5.79l.708-5.788H62.52l-.707 5.789Zm25.3-5.79-1.605 13.024h-3.273l3.285 7.235h-6.684l-3.285-7.235h-1.62l-.884 7.235H61.47l2.489-20.258Zm-6.495 5.79h-5.79l-.175 1.445h5.789Zm7.933-5.79h17.368l-2.489 20.259h-5.789l.535-4.34h-5.789l-.535 4.34h-5.789Zm5.078 5.79-.535 4.34h5.79l.535-4.34Zm12.844 1.445h5.79l-.899 7.235h5.789l1.07-8.68h-11.578l.711-5.79h17.367l-2.492 20.259H99.08Zm22.985 13.024h-5.79l2.493-20.258h5.789Zm8.898-13.586-1.664 13.586h-5.789l2.488-20.258h5.79l5.382 3.34.407-3.34h5.789l-2.489 20.258h-5.789l1.258-10.247Zm31.207-6.672-.71 5.789h-11.579l-1.07 8.68h5.79l.175-1.446h-4.344l.723-5.789h10.133l-1.606 13.024H143.92l2.488-20.258Zm24.59 0-.71 5.789h-11.579l-1.07 8.68h11.578l-.707 5.789H168.51l2.488-20.258Zm1.438 0h17.367l-2.492 20.258h-5.79l.54-4.34h-5.79l-.534 4.34h-5.79Zm5.078 5.789-.535 4.34h5.789l.535-4.34Zm31.09-5.79-1.605 13.024h-3.27l3.285 7.235h-6.687l-3.286-7.235h-1.62l-.883 7.235h-5.79l2.493-20.258Zm-6.496 5.79h-5.79l-.171 1.445h5.789Zm7.055 1.445h5.785l-.895 7.235h5.79l1.07-8.68H226.7l.711-5.79h17.364l-2.488 20.259h-17.368Zm42.836-7.234-.707 5.789H257.08l-1.07 8.68h5.788l.172-1.446h-4.34l.723-5.789h10.129l-1.606 13.024H249.51l2.492-20.258Zm1.437 0h17.368l-2.489 20.258h-5.789l.535-4.34h-5.789l-.535 4.34h-5.789Zm5.082 5.789-.535 4.34h5.79l.534-4.34Zm34.391 14.469h-5.789l1.777-14.47h-2.89l-1.782 14.47h-5.789l1.782-14.47h-2.895l-1.781 14.47h-5.79l2.489-20.258h23.156Zm7.93-5.79h11.578l-.707 5.79h-17.367l2.488-20.258h17.367l-.71 5.789h-11.575l-.176 1.445h11.578l-.722 5.79H318.38Zm0 0" fill="none"/>
        <path d="m56.024 261.224-1.78 14.469h-5.782l1.765-14.469h-5.78l.702-5.797h17.375l-.718 5.797Zm0 0" fill="#000000"/>
        <path d="M81.328 255.427 79.72 268.46h-3.266l3.282 7.234h-6.688l-3.281-7.234H68.14l-.875 7.234h-5.797l2.484-20.266Zm-6.5 5.797h-5.797l-.171 1.438h5.796Zm0 0" fill="#000000"/>
        <path d="M82.757 255.427h17.375l-2.484 20.266h-5.797l.531-4.344h-5.78l-.532 4.344h-5.797Zm5.078 5.797-.53 4.344H93.1l.531-4.344Zm0 0" fill="#000000"/>
        <path d="M100.686 262.662h5.782l-.891 7.234h5.781l1.078-8.672h-11.578l.703-5.797h17.375l-2.484 20.266H99.077Zm0 0" fill="#000000"/>
        <path d="M123.677 275.693h-5.797l2.484-20.266h5.797Zm0 0" fill="#000000"/>
        <path d="m132.566 262.1-1.656 13.593h-5.797l2.484-20.266h5.797l5.375 3.344.406-3.344h5.797l-2.484 20.266h-5.797l1.266-10.25Zm0 0" fill="#000000"/>
        <path d="m163.776 255.427-.718 5.797H151.48l-1.063 8.672h5.781l.188-1.437h-4.344l.719-5.797h10.125l-1.594 13.031h-17.375l2.484-20.266Zm0 0" fill="#000000"/>
        <path d="m188.366 255.427-.718 5.797H176.07l-1.063 8.672h11.578l-.703 5.797h-17.375l2.484-20.266Zm0 0" fill="#000000"/>
        <path d="M189.795 255.427h17.375l-2.484 20.266h-5.797l.531-4.344h-5.78l-.532 4.344h-5.797Zm5.079 5.797-.532 4.344h5.797l.531-4.344Zm0 0" fill="#000000"/>
        <path d="m225.974 255.427-1.609 13.032h-3.266l3.282 7.234h-6.688l-3.281-7.234h-1.625l-.875 7.234h-5.797l2.484-20.266Zm-6.5 5.797h-5.796l-.172 1.438h5.797Zm0 0" fill="#000000"/>
        <path d="M226.53 262.662h5.78l-.89 7.234h5.781l1.078-8.672h-11.578l.703-5.797h17.375l-2.484 20.266H224.92Zm0 0" fill="#000000"/>
        <path d="m269.37 255.427-.72 5.797h-11.577l-1.063 8.672h5.781l.188-1.437h-4.344l.719-5.797h10.125l-1.594 13.031H249.51l2.484-20.266Zm0 0" fill="#000000"/>
        <path d="M270.797 255.427h17.375l-2.484 20.266h-5.797l.531-4.344h-5.78l-.532 4.344h-5.797Zm5.078 5.797-.53 4.344h5.796l.531-4.344Zm0 0" fill="#000000"/>
        <path d="M310.273 275.693h-5.781l1.766-14.469h-2.891l-1.781 14.469h-5.781l1.78-14.469h-2.905l-1.766 14.469h-5.797l2.484-20.266h23.157Zm0 0" fill="#000000"/>
        <path d="M318.207 269.896h11.578l-.703 5.797h-17.375l2.484-20.266h17.375l-.718 5.797h-11.579l-.171 1.438h11.578l-.719 5.797h-11.578Zm0 0" fill="#000000"/>
    </g>
</svg>
